<svg xmlns="http://www.w3.org/2000/svg" viewBox="0 0 1024 1024">
  <!-- Исходник иконки: npx tauri icon src-tauri/icons/app-icon.svg -->
  <g transform="translate(100 100) scale(8.24)">
    <rect width="100" height="100" rx="22.5" fill="#E8701A"/>
    <g fill="#FFF4E8">
      <rect x="18" y="78" width="30" height="9" rx="3" opacity=".6"/>
      <rect x="26" y="67" width="28" height="9" rx="3" opacity=".75"/>
      <rect x="34" y="56" width="26" height="9" rx="3" opacity=".9"/>
      <rect x="42" y="45" width="22" height="9" rx="3"/>
      <path d="M44 42 C44 33 50 28 58 28 L76 33 C83 35 84 44 77 46 L60 47 C52 48 46 47 44 42 Z"/>
      <circle cx="48" cy="17" r="3.6"/>
      <circle cx="57" cy="16" r="3.6"/>
      <ellipse cx="44" cy="31" rx="6" ry="3" transform="rotate(-25 44 31)"/>
    </g>
    <path d="M50 30 L48 18 M57 29 L57 17" stroke="#FFF4E8" stroke-width="4" stroke-linecap="round"/>
    <circle cx="62" cy="35" r="2.6" fill="#1C2333"/>
  </g>
</svg>
